<?xml version="1.0" standalone="no"?>
<!DOCTYPE svg PUBLIC "-//W3C//DTD SVG 20010904//EN"
 "http://www.w3.org/TR/2001/REC-SVG-20010904/DTD/svg10.dtd">
<svg version="1.0" xmlns="http://www.w3.org/2000/svg"
 width="225.000000pt" height="225.000000pt" viewBox="0 0 225.000000 225.000000"
 preserveAspectRatio="xMidYMid meet">
<metadata>
Created by potrace 1.11, written by Peter Selinger 2001-2013
</metadata>
<g transform="translate(0.000000,225.000000) scale(0.100000,-0.100000)"
fill="#000000" stroke="none">
<path d="M1065 2234 c-22 -8 -61 -19 -86 -24 -43 -8 -117 -39 -166 -70 -18
-12 -30 -12 -73 -1 -45 12 -53 11 -69 -3 -10 -9 -22 -16 -27 -16 -5 0 -26 -5
-46 -11 -49 -13 -68 -49 -68 -129 0 -59 -1 -60 -24 -54 -24 6 -58 -2 -144 -32
-42 -16 -42 -16 -42 -67 -1 -29 -7 -69 -14 -89 -7 -21 -11 -48 -9 -61 6 -28
-33 -63 -105 -95 -52 -23 -149 -120 -158 -158 -6 -22 1 -43 29 -95 21 -37 37
-78 37 -92 0 -14 -13 -51 -30 -82 -16 -31 -30 -69 -30 -84 0 -14 -7 -51 -15
-81 -38 -141 -10 -229 95 -297 35 -24 72 -43 81 -43 14 0 82 -125 159 -292 16
-36 40 -61 98 -105 42 -31 97 -76 124 -100 62 -55 62 -55 208 -97 158 -45 237
-53 430 -43 236 11 480 77 616 166 121 78 199 177 249 316 16 44 35 86 42 93
22 22 55 152 64 255 5 55 12 104 15 108 3 5 -1 19 -7 31 -7 13 -14 55 -15 93
-3 90 -6 115 -16 115 -18 0 -6 28 27 64 51 56 52 68 7 128 -77 103 -86 130
-88 258 -1 89 -5 123 -19 150 -39 77 -213 217 -293 236 -15 4 -33 11 -39 16
-7 6 -61 12 -120 15 -61 3 -129 12 -156 21 -38 13 -52 14 -67 4 -34 -21 -44
-14 -80 55 -19 37 -47 75 -61 86 -36 26 -160 33 -214 11z m565 -517 c0 -2 -10
-12 -21 -23 -22 -19 -22 -19 -10 4 10 18 31 31 31 19z m-37 -185 c15 -14 27
-32 27 -39 0 -7 4 -13 9 -13 21 0 51 -113 51 -191 0 -84 -30 -191 -53 -186 -7
1 -12 -5 -11 -13 1 -9 -8 -17 -20 -18 -11 0 -22 -6 -24 -12 -2 -5 -13 -10 -23
-10 -11 0 -18 -4 -15 -8 5 -8 -32 -15 -69 -13 -11 0 -40 0 -63 0 -24 0 -41 4
-38 9 3 5 -10 8 -28 7 -24 0 -32 3 -29 12 5 12 -8 18 -29 14 -5 0 -8 3 -8 9 0
5 -9 19 -20 30 -11 11 -23 34 -27 50 -7 36 -23 40 -23 6 0 -57 -57 -148 -96
-154 -15 -2 -33 -11 -41 -20 -7 -10 -12 -12 -13 -5 0 9 -8 9 -30 1 -40 -13
-113 4 -159 39 l-33 26 13 -24 c11 -22 11 -23 -4 -10 -10 7 -17 20 -17 28 0 7
-9 26 -21 42 -30 40 -37 160 -15 229 10 29 22 52 27 52 5 0 8 5 7 12 -2 7 4
12 12 13 8 0 14 8 14 17 -1 9 5 15 15 13 9 -1 21 4 26 11 6 8 35 15 67 17 32
2 61 6 64 10 11 11 53 8 77 -4 31 -17 55 -48 80 -102 l23 -48 13 60 c7 34 17
58 22 55 8 -5 13 9 10 28 -1 11 32 48 43 48 5 0 17 6 25 14 18 16 53 26 119
33 23 3 42 9 42 13 0 13 42 17 70 7 14 -4 37 -20 53 -35z m-229 20 c2 -4 -5
-9 -17 -9 -17 -2 -19 0 -7 7 18 12 18 12 24 2z m450 -586 c24 -30 31 -50 34
-99 2 -34 13 -82 25 -106 l20 -44 -26 -51 c-14 -28 -29 -67 -32 -87 -3 -21
-17 -49 -33 -64 -31 -31 -93 -65 -120 -65 -10 0 -33 -13 -52 -30 -59 -52 -161
-54 -270 -3 l-65 30 55 -5 c30 -2 62 -10 70 -17 24 -20 56 -26 84 -16 32 13
34 44 6 120 -11 30 -15 50 -10 45 5 -5 17 -31 27 -57 19 -52 59 -85 88 -73 14
5 16 13 10 43 -4 20 -16 55 -27 76 -29 59 -16 55 27 -8 53 -76 75 -89 119 -71
75 31 79 92 10 156 -51 47 -45 54 8 10 22 -18 43 -28 52 -24 24 9 19 51 -9 88
-14 18 -25 36 -25 39 0 4 16 7 36 7 34 0 36 1 29 28 -3 15 -15 36 -25 47 -19
20 -19 21 1 33 31 19 16 26 -26 12 -20 -7 -40 -21 -45 -34 -5 -12 -9 -15 -9
-6 -1 8 10 28 24 44 37 43 39 61 11 109 -14 24 -26 50 -26 58 1 8 9 0 18 -17
9 -17 30 -47 46 -68z m-186 -73 c-21 -43 -123 -99 -217 -119 -119 -25 -280
-10 -320 31 -15 15 -14 16 14 8 54 -15 235 -8 313 11 71 18 171 72 202 111 13
16 15 16 18 2 2 -9 -3 -29 -10 -44z m-1213 -70 c32 -92 46 -105 21 -20 -17 60
-20 86 -5 49 5 -13 13 -20 19 -17 5 3 10 -1 10 -9 0 -9 4 -16 8 -16 5 0 19 -9
32 -20 17 -15 26 -17 37 -9 8 7 13 8 13 1 0 -5 -6 -15 -14 -21 -8 -7 -17 -30
-21 -52 -5 -30 -11 -39 -23 -36 -10 2 -16 8 -15 14 1 6 -5 10 -15 9 -20 -1
-74 100 -76 143 -1 16 -4 27 -8 24 -5 -2 -8 10 -8 28 0 46 13 27 45 -68z m403
-106 c11 -12 18 -13 50 -1 20 7 46 13 57 13 14 -1 11 -4 -10 -10 -16 -6 -37
-11 -44 -13 -8 -1 -17 -8 -19 -14 -2 -6 -24 5 -50 25 -61 45 -63 49 -26 30 17
-9 36 -22 42 -30z m151 -63 c27 14 56 26 63 26 7 0 -11 -11 -39 -25 -29 -13
-53 -28 -53 -33 0 -11 30 -31 108 -74 53 -30 56 -30 68 -12 42 61 61 84 73 89
12 5 12 3 0 -11 -11 -13 -11 -18 -2 -21 11 -4 53 -84 53 -101 0 -3 -8 2 -17
10 -30 26 -54 29 -89 12 -33 -16 -36 -15 -87 10 -28 14 -82 54 -118 89 -36 34
-53 52 -38 39 l27 -24 51 26z m312 -191 c13 -16 12 -17 -3 -4 -10 7 -18 15
-18 17 0 8 8 3 21 -13z m-371 -393 c0 -5 -12 -10 -27 -9 l-28 1 25 8 c14 4 26
8 28 9 1 1 2 -3 2 -9z"/>
<path d="M1400 1453 c-80 -29 -101 -161 -36 -222 32 -31 98 -39 131 -17 64 42
83 127 42 187 -34 50 -87 70 -137 52z m88 -35 c29 -29 2 -66 -38 -53 -25 8
-32 32 -14 50 19 18 36 19 52 3z m-50 -141 c3 -12 -3 -17 -22 -17 -25 0 -35
18 -19 34 12 12 38 2 41 -17z"/>
<path d="M936 1312 c-68 -72 -23 -192 72 -192 82 0 125 123 66 187 -20 22 -23
23 -15 6 19 -38 -32 -71 -59 -38 -16 19 -6 43 22 55 20 7 17 9 -18 9 -32 1
-46 -5 -68 -27z m64 -132 c0 -13 -7 -20 -20 -20 -13 0 -20 7 -20 20 0 13 7 20
20 20 13 0 20 -7 20 -20z"/>
<path d="M1125 1039 c-4 -6 -5 -12 -2 -15 2 -3 7 2 10 11 7 17 1 20 -8 4z"/>
</g>
</svg>
